<svg id="Capa_1" enable-background="new 0 0 512 512" height="20" viewBox="0 0 512 512" width="22" xmlns="http://www.w3.org/2000/svg"><g><path d="m307.4 60h-51.4l-60 120 171.4-60c0-33.084-26.916-60-60-60z" fill="#1da575"/><path d="m196 120h171.4v227h-171.4z" fill="#ff9850"/><path d="m196 0h-111.4v120l171.4-60c0-33.084-26.916-60-60-60z" fill="#0abf52"/><path d="m84.6 60h171.4v287h-171.4z" fill="#ffb664"/><path d="m99.6 0h-99.6v60l79.8 30 79.8-30c0-33.084-26.916-60-60-60z" fill="#5cc563"/><path d="m0 291 159.6 56v-287h-159.6z" fill="#ffd185"/><path d="m512 291h-15c-14.263 0-27.802-4.537-39.153-13.121l-9.047-6.841-9.047 6.841c-11.352 8.584-24.891 13.121-39.153 13.121s-27.801-4.537-39.152-13.121l-9.047-6.841-9.047 6.841c-11.353 8.584-24.892 13.121-39.154 13.121s-27.801-4.537-39.153-13.121l-9.047-6.841-70 122.481 70 118.481h256z" fill="#3992e3"/><path d="m246.953 277.879c-11.352 8.584-24.891 13.121-39.153 13.121s-27.801-4.537-39.153-13.121l-9.047-6.841-9.047 6.841c-11.352 8.584-24.891 13.121-39.153 13.121s-27.801-4.537-39.152-13.121l-9.047-6.841-9.047 6.841c-11.353 8.584-24.892 13.121-39.154 13.121h-15v221h256v-240.962z" fill="#2fb3ea"/></g></svg>