<svg id="Layer_1" enable-background="new 0 0 511.936 511.936" height="20" viewBox="0 0 511.936 511.936" width="22" xmlns="http://www.w3.org/2000/svg"><g><path d="m392.154 21.911-111.3 86.617v311.475h231.082v-286.378z" fill="#8c4a50"/><path d="m392.154 21.911-111.3 86.617v311.475h231.082v-286.378z" fill="#66333e"/><path d="m119.781 21.911-119.781 111.714v286.378h230.523v-311.911z" fill="#8c4a50"/><path d="m444.316 271.069-78.734-72.489-26.405-72.007-83.411-55.265-98.9 64.429-24.003 66.282-48.499 19.284-29.272 198.649h112.193l21.604-110.04 67.042-26.582 67.041 26.582 21.603 110.04h110.998z" fill="#eddee7"/><path d="m444.316 271.069-78.734-72.489-26.405-72.007-83.246-55.156v211.913l67.041 26.582 21.603 110.04h110.998z" fill="#dacad6"/><path d="m349.255 288.06-93.324-37.002-93.326 37.002-25.893 131.892h238.436z" fill="#60382c"/><path d="m349.255 288.06-93.324-37.002v168.894h119.217z" fill="#3c1b13"/><path d="m0 390.003h511.936v100.021h-511.936z" fill="#a5e887"/><path d="m255.931 390.003h256.005v100.021h-256.005z" fill="#00cc76"/></g></svg>